<?xml version="1.0" encoding="UTF-8" standalone="no" ?>
<!DOCTYPE svg PUBLIC "-//W3C//DTD SVG 1.1//EN" "http://www.w3.org/Graphics/SVG/1.1/DTD/svg11.dtd">
<svg xmlns="http://www.w3.org/2000/svg" xmlns:xlink="http://www.w3.org/1999/xlink" version="1.1" width="1080" height="1080" viewBox="0 0 1080 1080" xml:space="preserve">
<desc>Created with Fabric.js 5.2.4</desc>
<defs>
</defs>
<rect x="0" y="0" width="100%" height="100%" fill="transparent"></rect>
<g transform="matrix(1 0 0 1 540 540)" id="31e1b797-6e8a-4c6b-a243-dc5f6b14e1d2"  >
</g>
<g transform="matrix(1 0 0 1 540 540)" id="c73578ec-bac5-47b8-8381-dd5ded64b5e3"  >
<rect style="stroke: none; stroke-width: 1; stroke-dasharray: none; stroke-linecap: butt; stroke-dashoffset: 0; stroke-linejoin: miter; stroke-miterlimit: 4; fill: rgb(255,255,255); fill-rule: nonzero; opacity: 1; visibility: hidden;" vector-effect="non-scaling-stroke"  x="-540" y="-540" rx="0" ry="0" width="1080" height="1080" />
</g>
<g transform="matrix(1 0 0 1 540 540)"  >
<path style="stroke: none; stroke-width: 1; stroke-dasharray: none; stroke-linecap: butt; stroke-dashoffset: 0; stroke-linejoin: miter; stroke-miterlimit: 4; fill: rgb(255,255,255); fill-rule: nonzero; opacity: 1;" vector-effect="non-scaling-stroke"  transform=" translate(-49.98, -50)" d="M 28.55 39.75 C 28.740000000000002 39.75 28.92 39.73 29.07 39.71 C 29.37 39.67 29.66 39.61 29.94 39.53 C 30.62 41.7 31.53 43.74 32.63 45.59 C 30.040000000000003 49.14 28.490000000000002 53.5 28.490000000000002 58.220000000000006 L 28.490000000000002 85.51 C 25.470000000000002 87.59 23.490000000000002 91.06 23.490000000000002 94.99000000000001 C 23.490000000000002 95.82000000000001 24.160000000000004 96.49000000000001 24.990000000000002 96.49000000000001 L 74.99000000000001 96.49000000000001 C 75.82000000000001 96.49000000000001 76.49000000000001 95.82000000000001 76.49000000000001 94.99000000000001 C 76.49000000000001 91.06 74.51 87.59 71.49000000000001 85.51 L 71.49000000000001 58.220000000000006 C 71.49000000000001 53.50000000000001 69.94000000000001 49.14000000000001 67.35000000000001 45.59 C 68.45 43.74 69.36000000000001 41.7 70.04 39.53 C 70.32000000000001 39.6 70.61 39.660000000000004 70.91000000000001 39.71 C 71.07000000000001 39.730000000000004 71.24000000000001 39.75 71.43 39.75 C 72.57000000000001 39.75 74.32000000000001 39.22 75.89 36.59 C 78.39 32.410000000000004 79.64 23.640000000000004 75.5 18.050000000000004 C 73.66 15.560000000000004 71.77 15.240000000000004 70.51 15.410000000000004 C 69.74000000000001 15.510000000000003 69.02000000000001 15.830000000000004 68.36 16.270000000000003 C 64.59 8.620000000000003 57.76 3.5000000000000036 49.980000000000004 3.5000000000000036 C 42.20000000000001 3.5000000000000036 35.370000000000005 8.620000000000005 31.600000000000005 16.270000000000003 C 30.930000000000003 15.820000000000004 30.210000000000004 15.510000000000003 29.450000000000006 15.410000000000004 C 28.200000000000006 15.240000000000004 26.310000000000006 15.570000000000004 24.460000000000008 18.050000000000004 C 20.320000000000007 23.640000000000004 21.58000000000001 32.410000000000004 24.070000000000007 36.59 C 25.640000000000008 39.220000000000006 27.390000000000008 39.75 28.53000000000001 39.75 Z M 28.91 18.37 C 28.96 18.37 29.01 18.37 29.06 18.380000000000003 C 29.49 18.44 29.95 18.700000000000003 30.41 19.090000000000003 C 29.19 22.42 28.5 26.110000000000003 28.5 30.000000000000004 C 28.5 32.290000000000006 28.74 34.52 29.18 36.64 C 29.009999999999998 36.68 28.83 36.72 28.64 36.75 C 28.1 36.83 27.330000000000002 36.18 26.66 35.06 C 24.6 31.610000000000003 23.69 24.150000000000002 26.88 19.840000000000003 C 27.599999999999998 18.870000000000005 28.279999999999998 18.370000000000005 28.91 18.370000000000005 Z M 50 6.5 C 60.2 6.5 68.5 17.04 68.5 30 C 68.5 42.96 60.2 53.5 50 53.5 C 39.8 53.5 31.5 42.96 31.5 30 C 31.5 17.04 39.8 6.5 50 6.5 Z M 73.12 19.84 C 76.31 24.15 75.4 31.61 73.34 35.06 C 72.67 36.18 71.89 36.830000000000005 71.36 36.75 C 71.17999999999999 36.72 71 36.69 70.82 36.64 C 71.27 34.52 71.5 32.29 71.5 30 C 71.5 26.11 70.81 22.42 69.59 19.09 C 70.05 18.7 70.5 18.44 70.94 18.38 C 71.61 18.29 72.34 18.779999999999998 73.12 19.84 Z M 68.5 93.5 L 51.629999999999995 93.5 C 52.339999999999996 89.53 55.81999999999999 86.5 59.99999999999999 86.5 L 65 86.5 C 69.17 86.5 72.66 89.53 73.37 93.5 L 68.5 93.5 Z M 31.5 93.5 L 26.63 93.5 C 27.34 89.53 30.82 86.5 35 86.5 L 40 86.5 C 44.17 86.5 47.66 89.53 48.37 93.5 L 31.5 93.5 Z M 31.5 69.62 L 34.67 69.62 C 36.42 69.62 37.84 71.04 37.84 72.79 C 37.84 74.54 36.42 75.96000000000001 34.67 75.96000000000001 L 31.5 75.96000000000001 L 31.5 69.62 Z M 31.5 78.96000000000001 L 34.67 78.96000000000001 C 38.07 78.96000000000001 40.84 76.19000000000001 40.84 72.79 C 40.84 69.39 38.07 66.62 34.67 66.62 L 31.57 66.62 C 32 63.730000000000004 34.49 61.50000000000001 37.5 61.50000000000001 C 40.81 61.50000000000001 43.5 64.19000000000001 43.5 67.5 L 43.5 84.05 C 42.4 83.7 41.22 83.5 40 83.5 L 35 83.5 C 33.78 83.5 32.6 83.69 31.5 84.05 L 31.5 78.97 Z M 68.5 69.62 L 68.5 75.96000000000001 L 65.33 75.96000000000001 C 63.58 75.96000000000001 62.16 74.54 62.16 72.79 C 62.16 71.04 63.58 69.62 65.33 69.62 L 68.5 69.62 Z M 65 83.5 L 60 83.5 C 58.78 83.5 57.6 83.69 56.5 84.05 L 56.5 67.5 C 56.5 64.19 59.19 61.5 62.5 61.5 C 65.51 61.5 68 63.73 68.43 66.62 L 65.33000000000001 66.62 C 61.930000000000014 66.62 59.16000000000001 69.39 59.16000000000001 72.79 C 59.16000000000001 76.19000000000001 61.930000000000014 78.96000000000001 65.33000000000001 78.96000000000001 L 68.50000000000001 78.96000000000001 L 68.50000000000001 84.04 C 67.40000000000002 83.69000000000001 66.22000000000001 83.49000000000001 65.00000000000001 83.49000000000001 Z M 68.5 60.81 C 66.91 59.38 64.81 58.5 62.5 58.5 C 57.54 58.5 53.5 62.54 53.5 67.5 L 53.5 85.52 C 52.06 86.50999999999999 50.86 87.82 50 89.33999999999999 C 49.14 87.82 47.94 86.50999999999999 46.5 85.52 L 46.5 67.5 C 46.5 62.54 42.46 58.5 37.5 58.5 C 35.19 58.5 33.09 59.38 31.5 60.81 L 31.5 58.230000000000004 C 31.5 54.56 32.59 51.14 34.44 48.260000000000005 C 38.36 53.330000000000005 43.879999999999995 56.50000000000001 50 56.50000000000001 C 56.120000000000005 56.50000000000001 61.64 53.330000000000005 65.56 48.260000000000005 C 67.41 51.14000000000001 68.5 54.56 68.5 58.230000000000004 L 68.5 60.81 Z" stroke-linecap="round" />
</g>
<g transform="matrix(1 0 0 1 531.23 521.97)"  >
<path style="stroke: none; stroke-width: 1; stroke-dasharray: none; stroke-linecap: butt; stroke-dashoffset: 0; stroke-linejoin: miter; stroke-miterlimit: 4; fill: rgb(255,255,255); fill-rule: nonzero; opacity: 1;" vector-effect="non-scaling-stroke"  transform=" translate(-41.22, -31.96)" d="M 35.28 22.8 C 35.28 23.63 35.95 24.3 36.78 24.3 L 44.15 24.3 L 44.15 41.120000000000005 C 44.15 41.95 44.82 42.620000000000005 45.65 42.620000000000005 C 46.48 42.620000000000005 47.15 41.95 47.15 41.120000000000005 L 47.15 22.8 C 47.15 21.970000000000002 46.48 21.3 45.65 21.3 L 36.78 21.3 C 35.95 21.3 35.28 21.970000000000002 35.28 22.8 Z" stroke-linecap="round" />
</g>
<g transform="matrix(1 0 0 1 548.8 521.97)"  >
<path style="stroke: none; stroke-width: 1; stroke-dasharray: none; stroke-linecap: butt; stroke-dashoffset: 0; stroke-linejoin: miter; stroke-miterlimit: 4; fill: rgb(255,255,255); fill-rule: nonzero; opacity: 1;" vector-effect="non-scaling-stroke"  transform=" translate(-58.78, -31.96)" d="M 52.85 41.12 C 52.85 41.949999999999996 53.52 42.62 54.35 42.62 C 55.18 42.62 55.85 41.949999999999996 55.85 41.12 L 55.85 24.3 L 63.22 24.3 C 64.05 24.3 64.72 23.63 64.72 22.8 C 64.72 21.970000000000002 64.05 21.3 63.22 21.3 L 54.35 21.3 C 53.52 21.3 52.85 21.970000000000002 52.85 22.8 L 52.85 41.120000000000005 Z" stroke-linecap="round" />
</g>
</svg>