<?xml version="1.0" encoding="UTF-8" standalone="no" ?>
<!DOCTYPE svg PUBLIC "-//W3C//DTD SVG 1.1//EN" "http://www.w3.org/Graphics/SVG/1.1/DTD/svg11.dtd">
<svg xmlns="http://www.w3.org/2000/svg" xmlns:xlink="http://www.w3.org/1999/xlink" version="1.1" width="1080" height="1080" viewBox="0 0 1080 1080" xml:space="preserve">
<desc>Created with Fabric.js 5.2.4</desc>
<defs>
</defs>
<g transform="matrix(1 0 0 1 540 540)" id="29690913-a4b7-41e1-af8a-9930037fa595"  >
</g>
<g transform="matrix(1 0 0 1 540 540)" id="835b6ca5-3827-48cb-8a29-90e230eba0b4"  >
<rect style="stroke: none; stroke-width: 1; stroke-dasharray: none; stroke-linecap: butt; stroke-dashoffset: 0; stroke-linejoin: miter; stroke-miterlimit: 4; fill: rgb(255,255,255); fill-rule: nonzero; opacity: 1; visibility: hidden;" vector-effect="non-scaling-stroke"  x="-540" y="-540" rx="0" ry="0" width="1080" height="1080" />
</g>
<g transform="matrix(1.29 0 0 1.29 540.01 556.1)"  >
<path style="stroke: none; stroke-width: 1; stroke-dasharray: none; stroke-linecap: butt; stroke-dashoffset: 0; stroke-linejoin: miter; stroke-miterlimit: 4; fill: rgb(255,255,255); fill-rule: nonzero; opacity: 1;" vector-effect="non-scaling-stroke"  transform=" translate(-32.01, -44.51)" d="M 32.01 58 C 26.21060229574604 57.96585094712687 21.533393285624555 53.24345799534854 21.555 47.444 L 21.555 41.474000000000004 C 21.555 35.699862940519054 26.235862940519056 31.019000000000002 32.010000000000005 31.019000000000002 C 37.78413705948095 31.019000000000002 42.465 35.699862940519054 42.465 41.474000000000004 L 42.465 47.444 C 42.48605572132802 53.24323250047489 37.809166922670016 57.965302147403044 32.010000000000005 58 Z M 32.01 32.917 C 27.31454793201923 32.95057932419462 23.53227325442262 36.778482862478974 23.555 41.474000000000004 L 23.555 47.444 C 23.50806368752844 50.495672567118646 25.1092334438017 53.33583589405756 27.74451426238683 54.875382412201844 C 30.379795080971956 56.41492893034613 33.64020491902804 56.414928930346136 36.27548573761317 54.875382412201844 C 38.9107665561983 53.33583589405756 40.51193631247156 50.495672567118646 40.465 47.44400000000001 L 40.465 41.474000000000004 C 40.48772674557738 36.778482862478974 36.705452067980765 32.95057932419462 32.01 32.917 Z" stroke-linecap="round" />
</g>
<g transform="matrix(1.29 0 0 1.29 561.91 556.49)"  >
<path style="stroke: none; stroke-width: 1; stroke-dasharray: none; stroke-linecap: butt; stroke-dashoffset: 0; stroke-linejoin: miter; stroke-miterlimit: 4; fill: rgb(255,255,255); fill-rule: nonzero; opacity: 1;" vector-effect="non-scaling-stroke"  transform=" translate(-49.03, -44.81)" d="M 52.89 48.843 L 46.783 48.843 C 44.85947203318549 48.87094596206718 42.98138294111754 48.25769956126642 41.445 47.1 C 40.847451165699056 46.53125577207352 40.505495258599694 45.744901470937855 40.497 44.92 C 40.48435307417136 44.0653087713703 40.819263129102026 43.24210851781765 41.425 42.639 C 41.639779821453835 42.426386487583486 41.877194639182406 42.23793009271984 42.132999999999996 42.077000000000005 C 42.598023759357524 41.778766235091375 43.21676623509136 41.91397624064248 43.51499999999999 42.379000000000005 C 43.813233764908624 42.84402375935753 43.67802375935752 43.46276623509137 43.212999999999994 43.761 C 43.08022948772107 43.843395342453135 42.95654207340015 43.939596664702734 42.843999999999994 44.048 C 42.61832104123755 44.27081595772678 42.49304441010911 44.575884411051085 42.49699999999999 44.893 C 42.499049352804036 45.17977377149833 42.616991277767156 45.45352888173383 42.82399999999999 45.652 C 43.9940722717894 46.43947971338173 45.37362313908186 46.85752543074308 46.78399999999999 46.852000000000004 L 52.888999999999996 46.852000000000004 C 53.522999999999996 46.852000000000004 54.598 45.79600000000001 55.342999999999996 44.819 C 54.596 43.84 53.522 42.786 52.891 42.786 L 51.983 42.786 C 51.4307152501692 42.786 50.983 42.3382847498308 50.983 41.786 C 50.983 41.233715250169205 51.4307152501692 40.786 51.983 40.786 L 52.891999999999996 40.786 C 55.026999999999994 40.786 57.025999999999996 43.686 57.406 44.272 C 57.62185223729636 44.6036372063006 57.62185223729636 45.0313627936994 57.406 45.363 C 57.026 45.936 55.025 48.84 52.89 48.843 Z" stroke-linecap="round" />
</g>
<g transform="matrix(1.29 0 0 1.29 566.05 548.28)"  >
<path style="stroke: none; stroke-width: 1; stroke-dasharray: none; stroke-linecap: butt; stroke-dashoffset: 0; stroke-linejoin: miter; stroke-miterlimit: 4; fill: rgb(255,255,255); fill-rule: nonzero; opacity: 1;" vector-effect="non-scaling-stroke"  transform=" translate(-52.24, -38.44)" d="M 45.173 44.355 C 44.113572336138965 44.393312394457595 43.05986094684886 44.183391990936364 42.096000000000004 43.742 C 41.37340299021503 43.35110114435987 40.84065779282804 42.68336495522307 40.620000000000005 41.891999999999996 C 40.385377806022575 41.06521564527119 40.497293674834346 40.17855314913663 40.93000000000001 39.43599999999999 C 41.06364249363485 39.206443427385146 41.219741070556935 38.990719213784665 41.39600000000001 38.791999999999994 C 41.62642839036333 38.50686256902676 41.99440939922489 38.37067271740997 42.3549492545635 38.43709267179012 C 42.715489109902116 38.50351262617027 43.0107809665522 38.76189300073909 43.124472406558 39.11042542978531 C 43.23816384656381 39.458957858831525 43.152026251447374 39.8417606974753 42.9 40.108 C 42.81048777711568 40.208140299661245 42.730789338067765 40.316637334331524 42.662 40.431999999999995 C 42.5000576632054 40.707907356100336 42.45676663445716 41.03764069173282 42.542 41.346 C 42.617357283610005 41.61838975164673 42.79992959400699 41.84858962127771 43.048 41.983999999999995 C 44.38082730171868 42.43875477876079 45.819829707790106 42.48092462403438 47.177 42.105 L 59.937 38.474 C 60.559999999999995 38.303999999999995 61.330999999999996 37.001 61.803999999999995 35.858 C 60.833 35.111 59.529999999999994 34.376 58.919999999999995 34.54 L 52.425999999999995 36.39 C 51.894702070662774 36.54104987907872 51.34154987907872 36.232797929337224 51.1905 35.701499999999996 C 51.03945012092127 35.170202070662775 51.34770207066278 34.61704987907872 51.879 34.466 L 58.385 32.613 C 60.458999999999996 32.045 63.141999999999996 34.334 63.657 34.799 C 63.950910071884564 35.063818597339704 64.06106919264316 35.4770133065196 63.937999999999995 35.853 C 63.721999999999994 36.515 62.538 39.839 60.474 40.4 L 47.713 44.032 C 46.883934191045775 44.249417879240866 46.03009490130846 44.35799665506179 45.173 44.355 Z" stroke-linecap="round" />
</g>
<g transform="matrix(1.29 0 0 1.29 565.05 540.39)"  >
<path style="stroke: none; stroke-width: 1; stroke-dasharray: none; stroke-linecap: butt; stroke-dashoffset: 0; stroke-linejoin: miter; stroke-miterlimit: 4; fill: rgb(255,255,255); fill-rule: nonzero; opacity: 1;" vector-effect="non-scaling-stroke"  transform=" translate(-51.47, -32.3)" d="M 43.025 40.564 C 42.69656758510506 40.5684344685387 42.36872384060598 40.53487830226448 42.048 40.464 C 41.250691735308685 40.275006771666085 40.56469705771582 39.76953700922923 40.148 39.064 C 39.707844316178104 38.32465514900188 39.58693370648676 37.438217962727464 39.813 36.608 C 39.865 36.416 39.940000000000005 36.214999999999996 39.940000000000005 36.214999999999996 C 40.133299662440784 35.69750918940854 40.70950918940855 35.43470033755922 41.227000000000004 35.62799999999999 C 41.74449081059146 35.82129966244077 42.007299662440786 36.397509189408545 41.81400000000001 36.915 C 41.81400000000001 36.925 41.772000000000006 37.027 41.74600000000001 37.125 C 41.65972918838945 37.43394443556378 41.70306003925937 37.76470326387087 41.86600000000001 38.041 C 42.007353268862666 38.28258323793464 42.24093681809338 38.45623654114944 42.513000000000005 38.522 C 43.91865516357804 38.61104566980117 45.31851990490546 38.27440904044536 46.53000000000001 37.556 L 60.04400000000001 29.671999999999997 C 60.59400000000001 29.349999999999998 61.00400000000001 27.889999999999997 61.16700000000001 26.662 C 60.040000000000006 26.195 58.59400000000001 25.823999999999998 58.05000000000001 26.147 L 50.46500000000001 30.570999999999998 C 49.99061633391531 30.826298678961614 49.39925406030176 30.65992440725528 49.12757500207991 30.19472792462541 C 48.855895943858066 29.729531441995547 49.00155608633942 29.132729247100524 49.45700000000001 28.845 L 57.04200000000001 24.418999999999997 C 58.89600000000001 23.337999999999997 62.06700000000001 24.845999999999997 62.68400000000001 25.157999999999998 C 63.038343969822236 25.33819141443044 63.25230773054784 25.71115576798884 63.22900000000001 26.107999999999997 C 63.189000000000014 26.801999999999996 62.896000000000015 30.320999999999998 61.052000000000014 31.398999999999997 L 47.537 39.278 C 46.16141888425279 40.070668672269825 44.61178244761325 40.512342532535435 43.025 40.564 Z" stroke-linecap="round" />
</g>
<g transform="matrix(1.29 0 0 1.29 560.79 533.91)"  >
<path style="stroke: none; stroke-width: 1; stroke-dasharray: none; stroke-linecap: butt; stroke-dashoffset: 0; stroke-linejoin: miter; stroke-miterlimit: 4; fill: rgb(255,255,255); fill-rule: nonzero; opacity: 1;" vector-effect="non-scaling-stroke"  transform=" translate(-48.16, -27.26)" d="M 41.133 37.478 C 40.345950517138085 37.47919615116719 39.5899530708038 37.17105087375397 39.028000000000006 36.620000000000005 C 38.41074572058511 36.01888900049139 38.0660828488076 35.19155359549088 38.074000000000005 34.330000000000005 C 38.074326159298465 34.20671086993818 38.081336447506544 34.08353009142472 38.095000000000006 33.961000000000006 C 38.12296203434419 33.597922361681505 38.34608167365532 33.278746263551895 38.67746495902961 33.1277748590206 C 39.008848244403886 32.97680345448931 39.39610317346146 33.01790546154723 39.68841328739702 33.23507370071352 C 39.980723401332575 33.45224193987981 40.13187420212859 33.811141912688804 40.083000000000006 34.172000000000004 C 40.077151167023224 34.225134865622756 40.074146880739036 34.27854439956388 40.074000000000005 34.332 C 40.06811281394097 34.65202566648904 40.19392996258185 34.960422298071414 40.422000000000004 35.185 C 40.613232236689285 35.389614434620334 40.88664362034478 35.496921052936734 41.166000000000004 35.477000000000004 C 42.54820732995599 35.19380507562019 43.81392111667914 34.50313076657451 44.8 33.494 L 55.836 22.343 C 56.288 21.885 56.311 20.368 56.153999999999996 19.143 C 54.949 18.986 53.459999999999994 19.011 53.013999999999996 19.461000000000002 L 46.214 26.333000000000002 C 45.964309078576754 26.593973363647347 45.5932940306663 26.700022739224845 45.24339944988412 26.610432365222575 C 44.89350486910195 26.520841991220305 44.61911150903292 26.249536038859507 44.52556779391468 25.90067757739343 C 44.43202407879644 25.55181911592736 44.53386860968387 25.17962786486859 44.792 24.927000000000003 L 51.592 18.055000000000003 C 53.102 16.524000000000004 56.553 17.155000000000005 57.229 17.295 C 57.620024522271656 17.37639625900911 57.92511311758587 17.682664320542322 58.005 18.074 C 58.144000000000005 18.755000000000003 58.761 22.229000000000003 57.258 23.75 L 46.225 34.9 C 44.88952761777147 36.28859400689822 43.13091486014937 37.19463129962513 41.225 37.476 Z" stroke-linecap="round" />
</g>
<g transform="matrix(1.29 0 0 1.29 554.86 528.44)"  >
<path style="stroke: none; stroke-width: 1; stroke-dasharray: none; stroke-linecap: butt; stroke-dashoffset: 0; stroke-linejoin: miter; stroke-miterlimit: 4; fill: rgb(255,255,255); fill-rule: nonzero; opacity: 1;" vector-effect="non-scaling-stroke"  transform=" translate(-43.55, -23.01)" d="M 38.686 35.109 C 38.17293720370627 35.1078204012798 37.66867393652269 34.97564491008629 37.221 34.725 C 36.469399274523255 34.304911804115896 35.922900020886686 33.595041080476854 35.708999999999996 32.761 C 35.56761510404331 32.226940646913626 35.88594064691362 31.679384895956687 36.419999999999995 31.538000000000004 C 36.95405935308637 31.39661510404332 37.50161510404331 31.714940646913625 37.642999999999994 32.249 C 37.71950844603069 32.55700042632415 37.91856125303004 32.82035704393309 38.193999999999996 32.978 C 38.43437271101573 33.113866304571026 38.72002314846117 33.144962428141035 38.983999999999995 33.064 C 40.250377554913044 32.427791909866094 41.29808289804928 31.428136861629433 41.992999999999995 30.193 L 49.29899999999999 16.193 C 49.63499999999999 15.605000000000002 49.27299999999999 14.132000000000001 48.80899999999999 12.987000000000002 C 47.60199999999999 13.153000000000002 46.17099999999999 13.567000000000002 45.85399999999999 14.120000000000001 L 42.382999999999996 20.776 C 42.127568303203255 21.265876573099913 41.52337657309991 21.455931696796743 41.0335 21.2005 C 40.54362342690008 20.945068303203257 40.353568303203254 20.340876573099912 40.608999999999995 19.851 L 44.099999999999994 13.160999999999998 C 45.18599999999999 11.260999999999997 48.678 10.960999999999999 49.367 10.921999999999997 C 49.76692879398389 10.900294470325248 50.14163445407522 11.117890838973674 50.321 11.475999999999997 C 50.629999999999995 12.096999999999998 52.120999999999995 15.291999999999998 51.053999999999995 17.151999999999997 L 43.748 31.151999999999997 C 42.815020139770084 32.85413011061574 41.34440677196261 34.19920331287868 39.565999999999995 34.977 C 39.28066220996315 35.06362930763859 38.9841970484622 35.108099081863735 38.686 35.109 Z" stroke-linecap="round" />
</g>
<g transform="matrix(1.29 0 0 1.29 548.46 525.32)"  >
<path style="stroke: none; stroke-width: 1; stroke-dasharray: none; stroke-linecap: butt; stroke-dashoffset: 0; stroke-linejoin: miter; stroke-miterlimit: 4; fill: rgb(255,255,255); fill-rule: nonzero; opacity: 1;" vector-effect="non-scaling-stroke"  transform=" translate(-38.57, -20.59)" d="M 35.741 33.632 C 35.49113638638498 33.63126029725862 35.24229688685067 33.60002942889602 35 33.539 C 34.16675248228149 33.328033071526164 33.45734479323922 32.78286357260383 33.039 32.032000000000004 C 32.902219907391455 31.785741475059794 32.790333206101565 31.526459119376042 32.705 31.258000000000003 C 32.57693762913631 30.913924016397004 32.647715060106165 30.52734065714281 32.88937435802435 30.25095498990716 C 33.131033655942524 29.974569322671513 33.50471186848714 29.852828894479345 33.86280161585938 29.93382263590722 C 34.22089136323162 30.01481637733509 34.50580568354355 30.28551910814538 34.605 30.639000000000003 C 34.64903243422629 30.7794364997933 34.706288952578696 30.91537887670017 34.775999999999996 31.045 C 34.92708208603368 31.3194873889332 35.18404687886944 31.520071720893604 35.486999999999995 31.6 C 35.7549460309892 31.66760611778682 36.03888079911845 31.62281233757305 36.272999999999996 31.476000000000003 C 37.33527792751488 30.530054651643987 38.09205641287506 29.289411357336867 38.446999999999996 27.912000000000006 L 42.484 12.68 C 42.65 12.054 41.926 10.734 41.184000000000005 9.751999999999999 C 40.059000000000005 10.227999999999998 38.784000000000006 11.001999999999999 38.620000000000005 11.620999999999999 L 36.106 21.1 C 36.021810001913074 21.45319920096889 35.75278479214921 21.733012152293032 35.40316672864796 21.831016443100005 C 35.05354866514672 21.929020733906977 34.678277822582515 21.829815663782657 34.422764802174456 21.571841386489574 C 34.167251781766396 21.31386710919649 34.07164869774142 20.937662508557246 34.173 20.589000000000002 L 36.687000000000005 11.106000000000002 C 37.237 9.027000000000001 40.531000000000006 7.828000000000001 41.187000000000005 7.606000000000002 C 41.5686183676368 7.477761108809922 41.989924635730475 7.590871397811684 42.25600000000001 7.893000000000002 C 42.71300000000001 8.414000000000001 44.970000000000006 11.113000000000001 44.419000000000004 13.187000000000001 L 40.379 28.425 C 39.91178615423386 30.298307148174654 38.841470704927396 31.96597527765872 37.333 33.171 C 36.85655701182583 33.47201516220883 36.30456723489357 33.63185642299135 35.741 33.632 Z" stroke-linecap="round" />
</g>
<g transform="matrix(1.29 0 0 1.29 518.08 556.49)"  >
<path style="stroke: none; stroke-width: 1; stroke-dasharray: none; stroke-linecap: butt; stroke-dashoffset: 0; stroke-linejoin: miter; stroke-miterlimit: 4; fill: rgb(255,255,255); fill-rule: nonzero; opacity: 1;" vector-effect="non-scaling-stroke"  transform=" translate(-14.97, -44.81)" d="M 11.111 48.843 C 8.975000000000001 48.843 6.974000000000001 45.93600000000001 6.594 45.354000000000006 C 6.378147762703642 45.02236279369941 6.378147762703642 44.594637206300604 6.594 44.263000000000005 C 6.974 43.681000000000004 8.974 40.77700000000001 11.109 40.77700000000001 L 12.017 40.77700000000001 C 12.569284749830793 40.77700000000001 13.017 41.22471525016921 13.017 41.77700000000001 C 13.017 42.329284749830805 12.569284749830793 42.77700000000001 12.017 42.77700000000001 L 11.11 42.77700000000001 C 10.478 42.77700000000001 9.404 43.83100000000001 8.658 44.80900000000001 C 9.405 45.78700000000001 10.48 46.84200000000001 11.112 46.84300000000001 L 17.212 46.84300000000001 C 18.622117468760553 46.84887970207617 20.001450582453984 46.4307943935558 21.171000000000003 45.64300000000001 C 21.37814401060575 45.44503641546316 21.49613777355013 45.17152182123735 21.498 44.885000000000005 C 21.50184933924933 44.567414239311816 21.37619970910722 44.26195565569047 21.150000000000002 44.03900000000001 C 21.03688957846387 43.93154822316128 20.913268657123236 43.83573363372111 20.781000000000002 43.75300000000001 C 20.315976240642474 43.45476623509138 20.180766235091376 42.83602375935754 20.479000000000006 42.37100000000001 C 20.777233764908633 41.90597624064248 21.395976240642476 41.77076623509138 21.861000000000004 42.06900000000001 C 22.115949472495018 42.22912174540893 22.35268151391199 42.41656255440622 22.567000000000004 42.62800000000001 C 23.173907587910065 43.23179013436587 23.509865168598473 44.0559868199645 23.498000000000005 44.912000000000006 C 23.489691618804795 45.736650561812056 23.1476835110345 46.52276413441909 22.550000000000004 47.09100000000001 C 21.014780218728134 48.25075182663813 19.136851542851584 48.86582009072511 17.213 48.839000000000006 Z" stroke-linecap="round" />
</g>
<g transform="matrix(1.29 0 0 1.29 513.95 548.28)"  >
<path style="stroke: none; stroke-width: 1; stroke-dasharray: none; stroke-linecap: butt; stroke-dashoffset: 0; stroke-linejoin: miter; stroke-miterlimit: 4; fill: rgb(255,255,255); fill-rule: nonzero; opacity: 1;" vector-effect="non-scaling-stroke"  transform=" translate(-11.76, -38.44)" d="M 18.823 44.355 C 17.97167759031 44.3582603344796 17.123552259956533 44.25068993982518 16.3 44.035 L 3.514 40.4 C 1.463 39.839 0.276 36.515 0.06 35.853 C -0.06263390697494117 35.47731075828988 0.0474903833023288 35.064638595791784 0.3409999999999999 34.8 C 0.8560000000000001 34.336 3.523 32.05 5.602 32.611 L 12.117 34.465999999999994 C 12.648297929337224 34.617049879078714 12.956549879078722 35.17020207066277 12.8055 35.701499999999996 C 12.654450120921279 36.23279792933722 12.101297929337225 36.54104987907871 11.57 36.38999999999999 L 5.07 34.538 C 4.470000000000001 34.375 3.1700000000000004 35.11 2.1980000000000004 35.858 C 2.666 37 3.435 38.3 4.05 38.471 L 16.834 42.108 C 18.187661616141305 42.4809200968618 19.622235735424226 42.43771213213237 20.951 41.983999999999995 C 21.19664310147092 41.84718015558246 21.37685841205309 41.617225419279606 21.451 41.346 C 21.536167731752386 41.03730707875278 21.49288710334366 40.707292287136255 21.331 40.431 C 21.26210512530511 40.31627145234557 21.182768663395695 40.20814623210616 21.094 40.108 C 20.73280577361066 39.68936815962826 20.77936815962826 39.057194226389335 21.198 38.696 C 21.616631840371742 38.33480577361066 22.24880577361066 38.38136815962826 22.61 38.8 C 22.784520041765575 38.997509861409284 22.9389479012776 39.21189994836742 23.070999999999998 39.44 C 23.502925890654318 40.18211404556549 23.61447077645793 41.06797537165631 23.38 41.894 C 23.159369194286484 42.68507979438257 22.627066574427833 43.352713588781555 21.904999999999998 43.744 C 20.939143152378637 44.18451604061878 19.88386492201941 44.39372272418448 18.823 44.355 Z" stroke-linecap="round" />
</g>
<g transform="matrix(1.29 0 0 1.29 514.95 540.38)"  >
<path style="stroke: none; stroke-width: 1; stroke-dasharray: none; stroke-linecap: butt; stroke-dashoffset: 0; stroke-linejoin: miter; stroke-miterlimit: 4; fill: rgb(255,255,255); fill-rule: nonzero; opacity: 1;" vector-effect="non-scaling-stroke"  transform=" translate(-12.53, -32.3)" d="M 20.975 40.564 C 19.388322424844343 40.51252508908397 17.83872066280273 40.0712045518004 16.462999999999997 39.279 L 2.949 31.394 C 1.1 30.316 0.811 26.8 0.771 26.1 C 0.747875765385701 25.702928629035554 0.9622672980772815 25.329903068491596 1.3169999999999997 25.150000000000002 C 1.9340000000000002 24.838 5.105 23.330000000000002 6.9590000000000005 24.410000000000004 L 14.545000000000002 28.839000000000006 C 15.000443913660574 29.126729247100535 15.146104056141922 29.723531441995547 14.874424997920082 30.188727924625404 C 14.602745939698242 30.65392440725526 14.0113836660847 30.820298678961603 13.537000000000003 30.565000000000005 L 5.951 26.141 C 5.3999999999999995 25.822 3.9599999999999995 26.188999999999997 2.8339999999999996 26.656 C 2.9969999999999994 27.884 3.4059999999999997 29.345 3.957 29.666999999999998 L 17.471 37.552 C 18.68358051420155 38.26852021127929 20.08327445927302 38.6046836400981 21.489 38.517 C 21.760642371149572 38.45088498325016 21.993788632067513 38.277288463897946 22.135 38.036 C 22.2982169546562 37.75940584446025 22.34121181032581 37.428092544888564 22.254 37.119 C 22.224878016043675 37.01625900801905 22.187764842741842 36.915953134230314 22.143 36.819 C 21.98139841683782 36.49276967909834 22.009859484127325 36.10448989804839 22.2173038346755 35.80531079553324 C 22.424748185223677 35.506131693018084 22.778395706035777 35.343329199957005 23.14057795691869 35.3802793163508 C 23.502760207801604 35.4172294327446 23.816245574217454 35.6480933445337 23.959 35.983000000000004 C 24.052801382581034 36.18256847203832 24.128764134782926 36.3900438304752 24.186 36.603 C 24.41394583783307 37.43330771590156 24.293319334691756 38.32067094409978 23.852 39.06 C 23.43565395123328 39.7658539808145 22.749507030233072 40.27143592260413 21.952 40.46 C 21.63141983726648 40.5321436696421 21.303583475424567 40.567041296695905 20.975 40.564 Z" stroke-linecap="round" />
</g>
<g transform="matrix(1.29 0 0 1.29 519.2 533.91)"  >
<path style="stroke: none; stroke-width: 1; stroke-dasharray: none; stroke-linecap: butt; stroke-dashoffset: 0; stroke-linejoin: miter; stroke-miterlimit: 4; fill: rgb(255,255,255); fill-rule: nonzero; opacity: 1;" vector-effect="non-scaling-stroke"  transform=" translate(-15.84, -27.26)" d="M 22.867 37.478 L 22.767 37.478 C 20.861048142670775 37.1974151151163 19.102294676756536 36.29165708017047 17.767 34.903 L 6.742 23.749 C 5.242 22.227999999999998 5.856 18.753999999999998 5.995 18.073 C 6.074738526231989 17.681947109318777 6.3793627827417225 17.3757505985819 6.77 17.294 C 7.446000000000001 17.151 10.896 16.523 12.408000000000001 18.054000000000002 L 19.208000000000002 24.925000000000004 C 19.585374169769477 25.319426060334848 19.576713814580586 25.943607202443133 19.18854189572066 26.327411504775803 C 18.800369976860733 26.711215807108474 18.176130800738463 26.712812963891533 17.786 26.331000000000003 L 10.986 19.46 C 10.537 19.006 9.053 18.982 7.847000000000001 19.14 C 7.690000000000001 20.369 7.714000000000001 21.887 8.164000000000001 22.34 L 19.2 33.495 C 20.186831719077567 34.504533528829164 21.453730462511057 35.19493586852814 22.837 35.477 C 23.1166250101887 35.49870039994913 23.39078111178024 35.391101499862124 23.581 35.184999999999995 C 23.80876127248584 34.96103761081513 23.934572086865394 34.6533795561111 23.929 34.333999999999996 C 23.928909492992624 34.28054275266773 23.925905035785043 34.22713018008852 23.919999999999998 34.174 C 23.87112579787141 33.8131419126888 24.022276598667432 33.45424193987981 24.31458671260299 33.237073700713516 C 24.606896826538545 33.019905461547225 24.994151755596114 32.9788034544893 25.325535040970397 33.12977485902059 C 25.656918326344684 33.28074626355189 25.880037965655813 33.5999223616815 25.907999999999998 33.963 C 25.92166355249346 34.085530091424715 25.928673840701542 34.208710869938166 25.929 34.332 C 25.936486592251274 35.192884064697026 25.591848501359472 36.0194374734606 24.974999999999998 36.62 C 24.412306226785066 37.17178038214073 23.65508751764783 37.479984202083685 22.867 37.478 Z" stroke-linecap="round" />
</g>
<g transform="matrix(1.29 0 0 1.29 525.14 528.44)"  >
<path style="stroke: none; stroke-width: 1; stroke-dasharray: none; stroke-linecap: butt; stroke-dashoffset: 0; stroke-linejoin: miter; stroke-miterlimit: 4; fill: rgb(255,255,255); fill-rule: nonzero; opacity: 1;" vector-effect="non-scaling-stroke"  transform=" translate(-20.45, -23.01)" d="M 25.313 35.109 C 25.015180967193885 35.10841184361634 24.71904837179851 35.06427831688506 24.433999999999997 34.978 C 22.66670794027452 34.20737932559292 21.203051443178897 32.87518477132 20.269999999999996 31.188000000000002 L 12.928 17.116 C 11.884 15.289 13.370000000000001 12.094 13.679 11.472999999999999 C 13.855939784883246 11.112619538490819 14.232300792229337 10.894061888522543 14.633000000000001 10.918999999999999 C 15.322000000000001 10.958999999999998 18.813000000000002 11.256999999999998 19.882 13.124999999999998 L 23.391000000000002 19.848 C 23.556235335332527 20.16489457824854 23.539857836668833 20.545869246031717 23.348036749250305 20.847414533156797 C 23.156215661831776 21.148959820281874 22.81809317200136 21.32526382428026 22.461036749250304 21.309914533156796 C 22.103980326499247 21.294565242033332 21.782235335332526 21.08989457824854 21.617 20.773 L 18.127000000000002 14.084 C 17.827 13.555 16.398000000000003 13.147 15.192000000000002 12.984 C 14.728000000000002 14.129999999999999 14.364000000000003 15.6 14.683000000000002 16.158 L 22.025000000000002 30.229 C 22.71963104592377 31.44929694924267 23.760500065491822 32.436225915974525 25.016000000000002 33.065 C 25.27997685153882 33.14596242814103 25.565627288984267 33.114866304571024 25.806 32.979 C 26.08143874696995 32.82135704393309 26.280491553969302 32.55800042632415 26.357 32.25 C 26.471521765070754 31.706875539542885 26.996519452212553 31.352745565079616 27.543 31.45 C 27.801448548168967 31.49811497697063 28.029813693188096 31.64784818709963 28.176980179286662 31.86568465885983 C 28.324146665385225 32.083521130620035 28.377824893947857 32.35126974677616 28.326 32.609 L 28.296 32.741 C 28.08489739492759 33.58316338281319 27.536177968712668 34.30116474143984 26.779 34.726 C 26.330920031721988 34.97641956688794 25.82630795632631 35.108252053161166 25.313 35.109 Z" stroke-linecap="round" />
</g>
<g transform="matrix(1.29 0 0 1.29 531.52 525.33)"  >
<path style="stroke: none; stroke-width: 1; stroke-dasharray: none; stroke-linecap: butt; stroke-dashoffset: 0; stroke-linejoin: miter; stroke-miterlimit: 4; fill: rgb(255,255,255); fill-rule: nonzero; opacity: 1;" vector-effect="non-scaling-stroke"  transform=" translate(-25.42, -20.6)" d="M 28.259 33.632 C 27.69511598806037 33.63188141862972 27.142798405490005 33.47204563359209 26.666 33.171 C 25.158083714972264 31.96608134320376 24.08814807787295 30.298808897214847 23.621000000000002 28.425999999999995 L 19.582 13.191 C 19.031000000000002 11.118 21.288 8.419 21.745 7.898000000000001 C 22.010900870877997 7.596279583195457 22.431677133339676 7.483205812290493 22.813000000000002 7.611000000000001 C 23.469 7.831 26.763 9.030000000000001 27.313000000000002 11.111 L 29.965000000000003 21.111 C 30.106384895956687 21.645059353086378 29.788059353086382 22.19261510404332 29.254000000000005 22.334000000000003 C 28.719940646913624 22.475384895956687 28.172384895956686 22.157059353086378 28.031000000000002 21.623 L 25.380000000000003 11.623000000000001 C 25.217000000000002 11.005 23.941000000000003 10.231000000000002 22.817000000000004 9.754000000000001 C 22.077000000000005 10.738000000000001 21.352000000000004 12.054000000000002 21.517000000000003 12.681000000000001 L 25.556000000000004 27.915 C 25.91135922943853 29.291477703856472 26.667280585157787 30.53150891491895 27.72800000000001 31.478 C 27.962943606190365 31.624588044624133 28.24739119979553 31.669348833465556 28.516000000000005 31.601999999999997 C 28.819185593229463 31.521438939156766 29.076352768868503 31.32061738065212 29.228000000000005 31.045999999999996 C 29.28892779634203 30.93371593439631 29.339793108193657 30.8162572208442 29.380000000000006 30.694999999999997 C 29.487731364633415 30.346363123676575 29.776810962751295 30.084085579951214 30.13425322072944 30.0106774695695 C 30.491695478707587 29.937269359187788 30.860745276816992 30.064386511869916 31.097161017218276 30.34234571058232 C 31.33357675761956 30.620304909294727 31.399820059349615 31.0049714518566 31.270000000000007 31.345999999999997 C 31.192138502614384 31.58436392430025 31.09168211625109 31.814743903693405 30.970000000000006 32.034 C 30.54919516378099 32.78606050808389 29.83623884273083 33.330730184825256 29 33.539 C 28.75772535103465 33.60014765764644 28.508871282076306 33.631380354560235 28.259 33.632 Z" stroke-linecap="round" />
</g>
<g transform="matrix(1.29 0 0 1.29 540 523.81)"  >
<path style="stroke: none; stroke-width: 1; stroke-dasharray: none; stroke-linecap: butt; stroke-dashoffset: 0; stroke-linejoin: miter; stroke-miterlimit: 4; fill: rgb(255,255,255); fill-rule: nonzero; opacity: 1;" vector-effect="non-scaling-stroke"  transform=" translate(-32, -19.42)" d="M 31.937 32.831 C 31.09635951907251 32.83429939364445 30.293137652698835 32.483683793591595 29.724 31.865000000000002 C 28.57661844254003 30.309129818813293 27.971019719883223 28.419970926441884 28 26.487000000000005 L 28 9.651 C 28 7.260999999999999 31.326999999999998 6.162 31.706 6.045 C 31.89861491927976 5.983972125279056 32.10538508072025 5.983972125279056 32.298 6.045 C 32.677 6.162 35.998000000000005 7.261 35.998000000000005 9.651 L 35.998000000000005 26.487 C 36.02365816790802 28.44400086313425 35.3761859303409 30.350407669493254 34.164 31.887 C 33.57880372115442 32.488322757897826 32.77606969217899 32.82859259326055 31.937 32.831 Z M 32 8.059 C 31.1 8.405 30 9.087 30 9.651 L 30 26.487 C 29.99213031178395 27.91247543174247 30.405415068563556 29.308529075645307 31.188 30.5 C 31.39564866656696 30.706528518091524 31.677790899250756 30.820621641466026 31.97063019748181 30.816481240077156 C 32.26346949571286 30.812340838688286 32.54227330813256 30.69031660156553 32.744 30.478 C 33.5760445312449 29.31143600810022 34.01619187277721 27.91080803186373 34.001 26.478 L 34.001 9.651 C 34 9.087 32.9 8.4 32 8.059 Z" stroke-linecap="round" />
</g>
<g transform="matrix(1.29 0 0 1.29 540.01 544.68)"  >
<path style="stroke: none; stroke-width: 1; stroke-dasharray: none; stroke-linecap: butt; stroke-dashoffset: 0; stroke-linejoin: miter; stroke-miterlimit: 4; fill: rgb(255,255,255); fill-rule: nonzero; opacity: 1;" vector-effect="non-scaling-stroke"  transform=" translate(-32.01, -35.63)" d="M 49.465 48.444 C 48.91271525016921 48.444 48.465 47.9962847498308 48.465 47.444 L 48.465 41.474000000000004 C 48.53028952540405 35.55196651008532 45.40834177243046 30.051628981762974 40.290315066424775 27.071604482801405 C 35.172288360419095 24.09157998383984 28.847711639580925 24.091579983839836 23.729684933575243 27.0716044828014 C 18.61165822756956 30.051628981762967 15.48971047459596 35.55196651008532 15.555000000000007 41.474 L 15.555000000000007 47.444 C 15.555000000000007 47.9962847498308 15.1072847498308 48.444 14.555000000000007 48.444 C 14.002715250169214 48.444 13.555000000000007 47.9962847498308 13.555000000000007 47.444 L 13.555000000000007 41.474000000000004 C 13.485884720997541 34.83488472507296 16.988193697302385 28.670299630875274 22.726593718380506 25.330629923606043 C 28.46499373945863 21.990960216336813 35.555006260541376 21.990960216336813 41.2934062816195 25.33062992360604 C 47.03180630269762 28.67029963087527 50.53411527900247 34.83488472507297 50.465 41.47400000000001 L 50.465 47.444 C 50.465 47.9962847498308 50.0172847498308 48.444 49.465 48.444 Z" stroke-linecap="round" />
</g>
<g transform="matrix(1.29 0 0 1.29 543.86 550.25)"  >
<path style="stroke: none; stroke-width: 1; stroke-dasharray: none; stroke-linecap: butt; stroke-dashoffset: 0; stroke-linejoin: miter; stroke-miterlimit: 4; fill: rgb(255,255,255); fill-rule: nonzero; opacity: 1;" vector-effect="non-scaling-stroke"  transform=" translate(-35, -39.97)" d="M 35 40.97 C 34.5486332504265 40.96737508942133 34.15497789641553 40.662703289053646 34.03924494145521 40.2264181576175 C 33.92351198649488 39.790133026181365 34.114394732364275 39.33040134246776 34.50511327479389 39.10439724211165 C 34.89583181722351 38.878393141755545 35.389516556258386 38.942149099319174 35.71 39.26 C 36.096740334302616 39.65433610471898 36.09674033430262 40.28566389528101 35.71 40.68 C 35.517932596976415 40.86206308359089 35.26460708448255 40.96553406756726 35 40.97 Z" stroke-linecap="round" />
</g>
<g transform="matrix(1.29 0 0 1.29 536.14 550.26)"  >
<path style="stroke: none; stroke-width: 1; stroke-dasharray: none; stroke-linecap: butt; stroke-dashoffset: 0; stroke-linejoin: miter; stroke-miterlimit: 4; fill: rgb(255,255,255); fill-rule: nonzero; opacity: 1;" vector-effect="non-scaling-stroke"  transform=" translate(-29, -39.98)" d="M 29 40.97 C 28.7349084265097 40.96792337243384 28.48074059180155 40.86410834135586 28.29 40.68 C 27.90325966569738 40.28566389528102 27.90325966569738 39.654336104718986 28.29 39.26 C 28.691019799516646 38.88998158961173 29.308980200483354 38.88998158961173 29.71 39.26 C 29.89419577001988 39.450683581426034 29.99802571332388 39.704887925377214 30 39.97 C 30.002701075923888 40.23603534090795 29.898211825705957 40.4919616471727 29.71008673643933 40.68008673643933 C 29.521961647172702 40.868211825705956 29.266035340907944 40.97270107592389 29 40.97 Z" stroke-linecap="round" />
</g>
<g transform="matrix(1.29 0 0 1.29 540 545.77)"  >
<path style="stroke: none; stroke-width: 1; stroke-dasharray: none; stroke-linecap: butt; stroke-dashoffset: 0; stroke-linejoin: miter; stroke-miterlimit: 4; fill: rgb(255,255,255); fill-rule: nonzero; opacity: 1;" vector-effect="non-scaling-stroke"  transform=" translate(-32, -36.49)" d="M 32 37.479 C 31.733882135797938 37.481976687564604 31.47779504648134 37.37757598937643 31.289609528552454 37.189390471447545 C 31.10142401062357 37.00120495351866 30.997023312435395 36.745117864202065 31 36.479 C 31.001716485068926 36.2141315457526 31.105602894914835 35.96014718512932 31.29 35.769999999999996 C 31.69064224512597 35.399016900197225 32.30935775487403 35.399016900197225 32.71 35.769999999999996 C 32.89564991743315 35.95932540902762 32.999753116390515 36.21383978165099 33 36.479 C 33.002976687564605 36.745117864202065 32.89857598937643 37.00120495351866 32.710390471447546 37.189390471447545 C 32.52220495351866 37.377575989376425 32.266117864202066 37.481976687564604 32 37.479 Z" stroke-linecap="round" />
</g>
</svg>